<svg width="24" height="22" viewBox="0 0 24 22" fill="none" xmlns="http://www.w3.org/2000/svg">
  <!-- SynthoOS Interlocking "S" Logo (Colored) -->
  <path d="M16 2a6 6 0 0 0-5.8 4.5l-1.8 5.4A4 4 0 0 1 4.5 15H2a1 1 0 0 0-1 1v2a1 1 0 0 0 1 1h4.5a6 6 0 0 0 5.8-4.5l1.8-5.4a4 4 0 0 1 3.9-3.1H22a1 1 0 0 0 1-1V3a1 1 0 0 0-1-1h-6z" fill="#7528FC" />
  <path d="M8 20a6 6 0 0 0 5.8-4.5l1.8-5.4a4 4 0 0 1 3.9-3.1H22a1 1 0 0 0 1-1V5a1 1 0 0 0-1-1h-4.5a6 6 0 0 0-5.8 4.5l-1.8 5.4a4 4 0 0 1-3.9 3.1H2a1 1 0 0 0-1 1v3a1 1 0 0 0 1 1h6z" fill="#FF3276" />
  <circle cx="12" cy="11" r="2.5" fill="#F480FF" />
</svg>
